<?xml version="1.0" encoding="windows-1252" standalone="no"?>
<svg xmlns="http://www.w3.org/2000/svg" xmlns:xlink="http://www.w3.org/1999/xlink" contentStyleType="text/css" height="262px" preserveAspectRatio="none" style="width:287px;height:262px;background:#FFFFFF;" version="1.1" viewBox="0 0 287 262" width="287px" zoomAndPan="magnify"><defs/><g><rect fill="none" height="56.875" style="stroke:#000000;stroke-width:1.5;" width="271" x="10" y="53.2969"/><rect fill="none" height="56.875" style="stroke:#000000;stroke-width:1.5;" width="271" x="10" y="124.1719"/><line style="stroke:#181818;stroke-width:0.5;stroke-dasharray:5.0,5.0;" x1="58" x2="58" y1="36.2969" y2="227.1797"/><line style="stroke:#181818;stroke-width:0.5;stroke-dasharray:5.0,5.0;" x1="148.5" x2="148.5" y1="36.2969" y2="227.1797"/><rect fill="#E2E2F0" height="30.2969" rx="2.5" ry="2.5" style="stroke:#181818;stroke-width:0.5;" width="76" x="20" y="5"/><text fill="#000000" font-family="sans-serif" font-size="14" lengthAdjust="spacing" textLength="62" x="27" y="24.9951">Gateway</text><rect fill="#E2E2F0" height="30.2969" rx="2.5" ry="2.5" style="stroke:#181818;stroke-width:0.5;" width="76" x="20" y="226.1797"/><text fill="#000000" font-family="sans-serif" font-size="14" lengthAdjust="spacing" textLength="62" x="27" y="246.1748">Gateway</text><rect fill="#E2E2F0" height="30.2969" rx="2.5" ry="2.5" style="stroke:#181818;stroke-width:0.5;" width="65" x="116.5" y="5"/><text fill="#000000" font-family="sans-serif" font-size="14" lengthAdjust="spacing" textLength="51" x="123.5" y="24.9951">Sender</text><rect fill="#E2E2F0" height="30.2969" rx="2.5" ry="2.5" style="stroke:#181818;stroke-width:0.5;" width="65" x="116.5" y="226.1797"/><text fill="#000000" font-family="sans-serif" font-size="14" lengthAdjust="spacing" textLength="51" x="123.5" y="246.1748">Sender</text><path d="M10,53.2969 L88,53.2969 L88,60.4297 L78,70.4297 L10,70.4297 L10,53.2969 " fill="#EEEEEE" style="stroke:#000000;stroke-width:1.5;"/><rect fill="none" height="56.875" style="stroke:#000000;stroke-width:1.5;" width="271" x="10" y="53.2969"/><text fill="#000000" font-family="sans-serif" font-size="13" font-weight="bold" lengthAdjust="spacing" textLength="33" x="25" y="66.3638">loop</text><text fill="#000000" font-family="sans-serif" font-size="11" font-weight="bold" lengthAdjust="spacing" textLength="134" x="103" y="65.5073">[10 times if no ACK,</text><text fill="#000000" font-family="sans-serif" font-size="11" font-weight="bold" lengthAdjust="spacing" textLength="169" x="107" y="78.312">waiting 3 sec in between]</text><polygon fill="#181818" points="137,98.1719,147,102.1719,137,106.1719,141,102.1719" style="stroke:#181818;stroke-width:1.0;"/><line style="stroke:#181818;stroke-width:1.0;" x1="58" x2="143" y1="102.1719" y2="102.1719"/><text fill="#000000" font-family="sans-serif" font-size="13" lengthAdjust="spacing" textLength="67" x="65" y="97.106">Command</text><path d="M10,124.1719 L88,124.1719 L88,131.3047 L78,141.3047 L10,141.3047 L10,124.1719 " fill="#EEEEEE" style="stroke:#000000;stroke-width:1.5;"/><rect fill="none" height="56.875" style="stroke:#000000;stroke-width:1.5;" width="271" x="10" y="124.1719"/><text fill="#000000" font-family="sans-serif" font-size="13" font-weight="bold" lengthAdjust="spacing" textLength="33" x="25" y="137.2388">loop</text><text fill="#000000" font-family="sans-serif" font-size="11" font-weight="bold" lengthAdjust="spacing" textLength="160" x="103" y="136.3823">[10 times if no ACKACK,</text><text fill="#000000" font-family="sans-serif" font-size="11" font-weight="bold" lengthAdjust="spacing" textLength="169" x="107" y="149.187">waiting 3 sec in between]</text><polygon fill="#181818" points="69,169.0469,59,173.0469,69,177.0469,65,173.0469" style="stroke:#181818;stroke-width:1.0;"/><line style="stroke:#181818;stroke-width:1.0;" x1="63" x2="148" y1="173.0469" y2="173.0469"/><text fill="#000000" font-family="sans-serif" font-size="13" lengthAdjust="spacing" textLength="26" x="75" y="167.981">ACK</text><polygon fill="#181818" points="137,205.1797,147,209.1797,137,213.1797,141,209.1797" style="stroke:#181818;stroke-width:1.0;"/><line style="stroke:#181818;stroke-width:1.0;" x1="58" x2="143" y1="209.1797" y2="209.1797"/><text fill="#000000" font-family="sans-serif" font-size="13" lengthAdjust="spacing" textLength="52" x="65" y="204.1138">ACKACK</text><!--SRC=[oydFBr0mD50eoSnDBLR8J5F8orTmTFRMYSbJA4_CBCdCIrSmLYXEJLR8p5D8IYqfJqtDur800lV4ajJon4e5NJk5uDIybDGYAmNd_DpSnBmKe7GgcCp1RZGnfaEC11aEjSSAf1DkCXRB8GO30000]--></g></svg>