<?xml version="1.0" encoding="windows-1252" standalone="no"?>
<svg xmlns="http://www.w3.org/2000/svg" xmlns:xlink="http://www.w3.org/1999/xlink" contentStyleType="text/css" height="252.0833px" preserveAspectRatio="none" style="width:715px;height:252px;" version="1.1" viewBox="0 0 715 252" width="715.625px" zoomAndPan="magnify"><defs/><g><line style="stroke:#333333;stroke-width:0.5208333333333334;" x1="10.4167" x2="10.4167" y1="10.4167" y2="240.4948"/><line style="stroke:#333333;stroke-width:0.5208333333333334;" x1="697.9167" x2="697.9167" y1="10.4167" y2="240.4948"/><line style="stroke:#333333;stroke-width:0.5208333333333334;stroke-dasharray:3.0,5.0;" x1="15.625" x2="15.625" y1="10.4167" y2="240.4948"/><line style="stroke:#333333;stroke-width:0.5208333333333334;stroke-dasharray:3.0,5.0;" x1="67.7083" x2="67.7083" y1="10.4167" y2="240.4948"/><line style="stroke:#333333;stroke-width:0.5208333333333334;stroke-dasharray:3.0,5.0;" x1="119.7917" x2="119.7917" y1="10.4167" y2="240.4948"/><line style="stroke:#333333;stroke-width:0.5208333333333334;stroke-dasharray:3.0,5.0;" x1="171.875" x2="171.875" y1="10.4167" y2="240.4948"/><line style="stroke:#333333;stroke-width:0.5208333333333334;stroke-dasharray:3.0,5.0;" x1="223.9583" x2="223.9583" y1="10.4167" y2="240.4948"/><line style="stroke:#333333;stroke-width:0.5208333333333334;stroke-dasharray:3.0,5.0;" x1="276.0417" x2="276.0417" y1="10.4167" y2="240.4948"/><line style="stroke:#333333;stroke-width:0.5208333333333334;stroke-dasharray:3.0,5.0;" x1="328.125" x2="328.125" y1="10.4167" y2="240.4948"/><line style="stroke:#333333;stroke-width:0.5208333333333334;stroke-dasharray:3.0,5.0;" x1="380.2083" x2="380.2083" y1="10.4167" y2="240.4948"/><line style="stroke:#333333;stroke-width:0.5208333333333334;stroke-dasharray:3.0,5.0;" x1="432.2917" x2="432.2917" y1="10.4167" y2="240.4948"/><line style="stroke:#333333;stroke-width:0.5208333333333334;stroke-dasharray:3.0,5.0;" x1="484.375" x2="484.375" y1="10.4167" y2="240.4948"/><line style="stroke:#333333;stroke-width:0.5208333333333334;stroke-dasharray:3.0,5.0;" x1="536.4583" x2="536.4583" y1="10.4167" y2="240.4948"/><line style="stroke:#333333;stroke-width:0.5208333333333334;stroke-dasharray:3.0,5.0;" x1="588.5417" x2="588.5417" y1="10.4167" y2="240.4948"/><line style="stroke:#333333;stroke-width:0.5208333333333334;stroke-dasharray:3.0,5.0;" x1="640.625" x2="640.625" y1="10.4167" y2="240.4948"/><line style="stroke:#333333;stroke-width:0.5208333333333334;stroke-dasharray:3.0,5.0;" x1="692.7083" x2="692.7083" y1="10.4167" y2="240.4948"/><line style="stroke:#333333;stroke-width:0.5208333333333334;" x1="10.4167" x2="697.9167" y1="10.4167" y2="10.4167"/><text fill="#333333" font-family="Verdana" font-size="12.5" font-weight="bold" lengthAdjust="spacing" textLength="109.375" x="20.8333" y="27.2278">Network state</text><line style="stroke:#333333;stroke-width:0.5208333333333334;" x1="10.4167" x2="136.4583" y1="36.4258" y2="36.4258"/><line style="stroke:#333333;stroke-width:0.5208333333333334;" x1="136.4583" x2="146.875" y1="36.4258" y2="10.4167"/><polygon fill="#E2E2F0" points="80.2083,71.8099,211.4583,71.8099,223.9583,84.3099,211.4583,96.8099,80.2083,96.8099,67.7083,84.3099" style="stroke:#006400;stroke-width:1.5625;"/><polygon fill="#E2E2F0" points="236.4583,71.8099,315.625,71.8099,328.125,84.3099,315.625,96.8099,236.4583,96.8099,223.9583,84.3099" style="stroke:#006400;stroke-width:1.5625;"/><polygon fill="#E2E2F0" points="340.625,71.8099,367.7083,71.8099,380.2083,84.3099,367.7083,96.8099,340.625,96.8099,328.125,84.3099" style="stroke:#006400;stroke-width:1.5625;"/><polygon fill="#E2E2F0" points="392.7083,71.8099,523.9583,71.8099,536.4583,84.3099,523.9583,96.8099,392.7083,96.8099,380.2083,84.3099" style="stroke:#006400;stroke-width:1.5625;"/><polygon fill="#E2E2F0" points="548.9583,71.8099,692.7083,71.8099,692.7083,96.8099,548.9583,96.8099,536.4583,84.3099" style="stroke:#E2E2F0;stroke-width:1.5625;"/><path d="M692.7083,71.8099 L548.9583,71.8099 L536.4583,84.3099 L548.9583,96.8099 L692.7083,96.8099 " fill="#E2E2F0" style="stroke:#006400;stroke-width:1.5625;"/><text fill="#333333" font-family="Verdana" font-size="12.5" font-weight="bold" lengthAdjust="spacing" textLength="112.5" x="89.5833" y="88.6373">Sender1 frame</text><text fill="#333333" font-family="Verdana" font-size="12.5" font-weight="bold" lengthAdjust="spacing" textLength="54.1667" x="248.9583" y="88.6373">Silence</text><text fill="#333333" font-family="Verdana" font-size="12.5" font-weight="bold" lengthAdjust="spacing" textLength="12.5" x="347.9167" y="88.6373">...</text><text fill="#333333" font-family="Verdana" font-size="12.5" font-weight="bold" lengthAdjust="spacing" textLength="115.625" x="400.5208" y="88.6373">Gateway frame</text><text fill="#333333" font-family="Verdana" font-size="12.5" font-weight="bold" lengthAdjust="spacing" textLength="112.5" x="554.1667" y="88.6373">Sender1 frame</text><line style="stroke:#8B0000;stroke-width:1.5625;" x1="68.75" x2="535.4167" y1="56.722" y2="56.722"/><polygon fill="#8B0000" points="77.0833,60.8887,77.0833,52.5553,68.75,56.722" style="stroke:#8B0000;stroke-width:1.0416666666666667;"/><polygon fill="#8B0000" points="527.0833,60.8887,527.0833,52.5553,535.4167,56.722" style="stroke:#8B0000;stroke-width:1.0416666666666667;"/><text fill="#8B0000" font-family="Verdana" font-size="12.5" lengthAdjust="spacing" textLength="33.3333" x="285.4167" y="43.3573">cycle</text><line style="stroke:#333333;stroke-width:0.5208333333333334;" x1="10.4167" x2="697.9167" y1="107.2266" y2="107.2266"/><text fill="#333333" font-family="Verdana" font-size="12.5" font-weight="bold" lengthAdjust="spacing" textLength="65.625" x="20.8333" y="124.0377">Gateway</text><line style="stroke:#333333;stroke-width:0.5208333333333334;" x1="10.4167" x2="92.7083" y1="133.2357" y2="133.2357"/><line style="stroke:#333333;stroke-width:0.5208333333333334;" x1="92.7083" x2="103.125" y1="133.2357" y2="107.2266"/><polygon fill="#E2E2F0" points="28.125,138.444,263.5417,138.444,276.0417,150.944,263.5417,163.444,28.125,163.444,15.625,150.944" style="stroke:#006400;stroke-width:1.5625;"/><polygon fill="#E2E2F0" points="288.5417,138.444,315.625,138.444,328.125,150.944,315.625,163.444,288.5417,163.444,276.0417,150.944" style="stroke:#006400;stroke-width:1.5625;"/><polygon fill="#E2E2F0" points="340.625,138.444,692.7083,138.444,692.7083,163.444,340.625,163.444,328.125,150.944" style="stroke:#E2E2F0;stroke-width:1.5625;"/><path d="M692.7083,138.444 L340.625,138.444 L328.125,150.944 L340.625,163.444 L692.7083,163.444 " fill="#E2E2F0" style="stroke:#006400;stroke-width:1.5625;"/><text fill="#333333" font-family="Verdana" font-size="12.5" font-weight="bold" lengthAdjust="spacing" textLength="42.7083" x="124.4792" y="155.2714">listen</text><text fill="#333333" font-family="Verdana" font-size="12.5" font-weight="bold" lengthAdjust="spacing" textLength="4.1667" x="300" y="155.2714"> </text><text fill="#333333" font-family="Verdana" font-size="12.5" font-weight="bold" lengthAdjust="spacing" textLength="42.7083" x="345.8333" y="155.2714">listen</text><line style="stroke:#333333;stroke-width:0.5208333333333334;" x1="10.4167" x2="697.9167" y1="173.8607" y2="173.8607"/><text fill="#333333" font-family="Verdana" font-size="12.5" font-weight="bold" lengthAdjust="spacing" textLength="62.5" x="20.8333" y="190.6718">Sender1</text><line style="stroke:#333333;stroke-width:0.5208333333333334;" x1="10.4167" x2="89.5833" y1="199.8698" y2="199.8698"/><line style="stroke:#333333;stroke-width:0.5208333333333334;" x1="89.5833" x2="100" y1="199.8698" y2="173.8607"/><polygon fill="#E2E2F0" points="28.125,205.0781,263.5417,205.0781,276.0417,217.5781,263.5417,230.0781,28.125,230.0781,15.625,217.5781" style="stroke:#006400;stroke-width:1.5625;"/><polygon fill="#E2E2F0" points="288.5417,205.0781,315.625,205.0781,328.125,217.5781,315.625,230.0781,288.5417,230.0781,276.0417,217.5781" style="stroke:#006400;stroke-width:1.5625;"/><polygon fill="#E2E2F0" points="340.625,205.0781,692.7083,205.0781,692.7083,230.0781,340.625,230.0781,328.125,217.5781" style="stroke:#E2E2F0;stroke-width:1.5625;"/><path d="M692.7083,205.0781 L340.625,205.0781 L328.125,217.5781 L340.625,230.0781 L692.7083,230.0781 " fill="#E2E2F0" style="stroke:#006400;stroke-width:1.5625;"/><text fill="#333333" font-family="Verdana" font-size="12.5" font-weight="bold" lengthAdjust="spacing" textLength="40.625" x="125.5208" y="221.9055">sleep</text><text fill="#333333" font-family="Verdana" font-size="12.5" font-weight="bold" lengthAdjust="spacing" textLength="42.7083" x="280.7292" y="221.9055">listen</text><text fill="#333333" font-family="Verdana" font-size="12.5" font-weight="bold" lengthAdjust="spacing" textLength="40.625" x="345.8333" y="221.9055">sleep</text><line style="stroke:#EC7211;stroke-width:3.125;" x1="328.125" x2="328.125" y1="150.944" y2="217.5781"/><polygon fill="#EC7211" points="325.2748,209.7474,330.9752,209.7474,328.125,217.5781" style="stroke:#EC7211;stroke-width:3.125;"/><text fill="#EC7211" font-family="Serif" font-size="14.5833" lengthAdjust="spacing" textLength="81.25" x="333.3333" y="201.0997">timestamp</text><line style="stroke:#EC7211;stroke-width:3.125;" x1="276.0417" x2="276.0417" y1="217.5781" y2="150.944"/><polygon fill="#EC7211" points="278.8918,158.7748,273.1915,158.7748,276.0417,150.944" style="stroke:#EC7211;stroke-width:3.125;"/><text fill="#EC7211" font-family="Serif" font-size="14.5833" lengthAdjust="spacing" textLength="41.6667" x="281.25" y="177.5197">paylo</text><!--SRC=[PP313e8m38RlVOhAbK3010_4cDsyUV49bb5bSGp2bY1lxp9MYV7M_N_x_MiFlgU1K2wk66TfdmJGwuxGwu4A-TOEr6YLTeJPZVmopYzqNdhAK3fCojvo3SuYrsYcUZVlP3kQwsYc6a0meq7jlZtucEL06UHrahKXgw9GHQ4io_3Op1JqD_EB0j7WkRYWQ2fiKQtAX5K5Vp9IZNQUBEJ73S01IUQOm61q6yyKxZ5C462yL8GvGpGnQqCWy61WCAx5IQvcJ5dR58XJzG40]--></g></svg>