<?xml version="1.0" encoding="windows-1252" standalone="no"?>
<svg xmlns="http://www.w3.org/2000/svg" xmlns:xlink="http://www.w3.org/1999/xlink" contentStyleType="text/css" height="343.75px" preserveAspectRatio="none" style="width:1444px;height:343px;" version="1.1" viewBox="0 0 1444 343" width="1444.7917px" zoomAndPan="magnify"><defs/><g><line style="stroke:#333333;stroke-width:0.5208333333333334;" x1="10.4167" x2="10.4167" y1="10.4167" y2="307.1289"/><line style="stroke:#333333;stroke-width:0.5208333333333334;" x1="1427.0833" x2="1427.0833" y1="10.4167" y2="307.1289"/><line style="stroke:#333333;stroke-width:0.5208333333333334;stroke-dasharray:3.0,5.0;" x1="15.625" x2="15.625" y1="10.4167" y2="307.1289"/><line style="stroke:#333333;stroke-width:0.5208333333333334;stroke-dasharray:3.0,5.0;" x1="67.7083" x2="67.7083" y1="10.4167" y2="307.1289"/><line style="stroke:#333333;stroke-width:0.5208333333333334;stroke-dasharray:3.0,5.0;" x1="119.7917" x2="119.7917" y1="10.4167" y2="307.1289"/><line style="stroke:#333333;stroke-width:0.5208333333333334;stroke-dasharray:3.0,5.0;" x1="171.875" x2="171.875" y1="10.4167" y2="307.1289"/><line style="stroke:#333333;stroke-width:0.5208333333333334;stroke-dasharray:3.0,5.0;" x1="223.9583" x2="223.9583" y1="10.4167" y2="307.1289"/><line style="stroke:#333333;stroke-width:0.5208333333333334;stroke-dasharray:3.0,5.0;" x1="276.0417" x2="276.0417" y1="10.4167" y2="307.1289"/><line style="stroke:#333333;stroke-width:0.5208333333333334;stroke-dasharray:3.0,5.0;" x1="328.125" x2="328.125" y1="10.4167" y2="307.1289"/><line style="stroke:#333333;stroke-width:0.5208333333333334;stroke-dasharray:3.0,5.0;" x1="380.2083" x2="380.2083" y1="10.4167" y2="307.1289"/><line style="stroke:#333333;stroke-width:0.5208333333333334;stroke-dasharray:3.0,5.0;" x1="432.2917" x2="432.2917" y1="10.4167" y2="307.1289"/><line style="stroke:#333333;stroke-width:0.5208333333333334;stroke-dasharray:3.0,5.0;" x1="484.375" x2="484.375" y1="10.4167" y2="307.1289"/><line style="stroke:#333333;stroke-width:0.5208333333333334;stroke-dasharray:3.0,5.0;" x1="536.4583" x2="536.4583" y1="10.4167" y2="307.1289"/><line style="stroke:#333333;stroke-width:0.5208333333333334;stroke-dasharray:3.0,5.0;" x1="588.5417" x2="588.5417" y1="10.4167" y2="307.1289"/><line style="stroke:#333333;stroke-width:0.5208333333333334;stroke-dasharray:3.0,5.0;" x1="640.625" x2="640.625" y1="10.4167" y2="307.1289"/><line style="stroke:#333333;stroke-width:0.5208333333333334;stroke-dasharray:3.0,5.0;" x1="692.7083" x2="692.7083" y1="10.4167" y2="307.1289"/><line style="stroke:#333333;stroke-width:0.5208333333333334;stroke-dasharray:3.0,5.0;" x1="744.7917" x2="744.7917" y1="10.4167" y2="307.1289"/><line style="stroke:#333333;stroke-width:0.5208333333333334;stroke-dasharray:3.0,5.0;" x1="796.875" x2="796.875" y1="10.4167" y2="307.1289"/><line style="stroke:#333333;stroke-width:0.5208333333333334;stroke-dasharray:3.0,5.0;" x1="848.9583" x2="848.9583" y1="10.4167" y2="307.1289"/><line style="stroke:#333333;stroke-width:0.5208333333333334;stroke-dasharray:3.0,5.0;" x1="901.0417" x2="901.0417" y1="10.4167" y2="307.1289"/><line style="stroke:#333333;stroke-width:0.5208333333333334;stroke-dasharray:3.0,5.0;" x1="953.125" x2="953.125" y1="10.4167" y2="307.1289"/><line style="stroke:#333333;stroke-width:0.5208333333333334;stroke-dasharray:3.0,5.0;" x1="1005.2083" x2="1005.2083" y1="10.4167" y2="307.1289"/><line style="stroke:#333333;stroke-width:0.5208333333333334;stroke-dasharray:3.0,5.0;" x1="1057.2917" x2="1057.2917" y1="10.4167" y2="307.1289"/><line style="stroke:#333333;stroke-width:0.5208333333333334;stroke-dasharray:3.0,5.0;" x1="1109.375" x2="1109.375" y1="10.4167" y2="307.1289"/><line style="stroke:#333333;stroke-width:0.5208333333333334;stroke-dasharray:3.0,5.0;" x1="1161.4583" x2="1161.4583" y1="10.4167" y2="307.1289"/><line style="stroke:#333333;stroke-width:0.5208333333333334;stroke-dasharray:3.0,5.0;" x1="1213.5417" x2="1213.5417" y1="10.4167" y2="307.1289"/><line style="stroke:#333333;stroke-width:0.5208333333333334;stroke-dasharray:3.0,5.0;" x1="1265.625" x2="1265.625" y1="10.4167" y2="307.1289"/><line style="stroke:#333333;stroke-width:0.5208333333333334;stroke-dasharray:3.0,5.0;" x1="1317.7083" x2="1317.7083" y1="10.4167" y2="307.1289"/><line style="stroke:#333333;stroke-width:0.5208333333333334;stroke-dasharray:3.0,5.0;" x1="1369.7917" x2="1369.7917" y1="10.4167" y2="307.1289"/><line style="stroke:#333333;stroke-width:0.5208333333333334;stroke-dasharray:3.0,5.0;" x1="1421.875" x2="1421.875" y1="10.4167" y2="307.1289"/><line style="stroke:#333333;stroke-width:0.5208333333333334;" x1="10.4167" x2="1427.0833" y1="10.4167" y2="10.4167"/><text fill="#333333" font-family="Verdana" font-size="12.5" font-weight="bold" lengthAdjust="spacing" textLength="63.5417" x="20.8333" y="27.2278">Network</text><line style="stroke:#333333;stroke-width:0.5208333333333334;" x1="10.4167" x2="90.625" y1="36.4258" y2="36.4258"/><line style="stroke:#333333;stroke-width:0.5208333333333334;" x1="90.625" x2="101.0417" y1="36.4258" y2="10.4167"/><polygon fill="#E2E2F0" points="184.375,71.8099,419.7917,71.8099,432.2917,84.3099,419.7917,96.8099,184.375,96.8099,171.875,84.3099" style="stroke:#006400;stroke-width:1.5625;"/><polygon fill="#E2E2F0" points="444.7917,71.8099,523.9583,71.8099,536.4583,84.3099,523.9583,96.8099,444.7917,96.8099,432.2917,84.3099" style="stroke:#006400;stroke-width:1.5625;"/><polygon fill="#E2E2F0" points="548.9583,71.8099,784.375,71.8099,796.875,84.3099,784.375,96.8099,548.9583,96.8099,536.4583,84.3099" style="stroke:#006400;stroke-width:1.5625;"/><polygon fill="#E2E2F0" points="809.375,71.8099,888.5417,71.8099,901.0417,84.3099,888.5417,96.8099,809.375,96.8099,796.875,84.3099" style="stroke:#006400;stroke-width:1.5625;"/><polygon fill="#E2E2F0" points="913.5417,71.8099,1044.7917,71.8099,1057.2917,84.3099,1044.7917,96.8099,913.5417,96.8099,901.0417,84.3099" style="stroke:#006400;stroke-width:1.5625;"/><polygon fill="#E2E2F0" points="1069.7917,71.8099,1305.2083,71.8099,1317.7083,84.3099,1305.2083,96.8099,1069.7917,96.8099,1057.2917,84.3099" style="stroke:#006400;stroke-width:1.5625;"/><polygon fill="#E2E2F0" points="1330.2083,71.8099,1421.875,71.8099,1421.875,96.8099,1330.2083,96.8099,1317.7083,84.3099" style="stroke:#E2E2F0;stroke-width:1.5625;"/><path d="M1421.875,71.8099 L1330.2083,71.8099 L1317.7083,84.3099 L1330.2083,96.8099 L1421.875,96.8099 " fill="#E2E2F0" style="stroke:#006400;stroke-width:1.5625;"/><text fill="#333333" font-family="Verdana" font-size="12.5" font-weight="bold" lengthAdjust="spacing" textLength="112.5" x="245.8333" y="88.6373">Sender1 frame</text><text fill="#333333" font-family="Verdana" font-size="12.5" font-weight="bold" lengthAdjust="spacing" textLength="54.1667" x="457.2917" y="88.6373">Silence</text><text fill="#333333" font-family="Verdana" font-size="12.5" font-weight="bold" lengthAdjust="spacing" textLength="112.5" x="610.4167" y="88.6373">Sender2 frame</text><text fill="#333333" font-family="Verdana" font-size="12.5" font-weight="bold" lengthAdjust="spacing" textLength="54.1667" x="821.875" y="88.6373">Silence</text><text fill="#333333" font-family="Verdana" font-size="12.5" font-weight="bold" lengthAdjust="spacing" textLength="115.625" x="921.3542" y="88.6373">Gateway frame</text><text fill="#333333" font-family="Verdana" font-size="12.5" font-weight="bold" lengthAdjust="spacing" textLength="112.5" x="1131.25" y="88.6373">Sender1 frame</text><text fill="#333333" font-family="Verdana" font-size="12.5" font-weight="bold" lengthAdjust="spacing" textLength="54.1667" x="1335.4167" y="88.6373">Silence</text><line style="stroke:#8B0000;stroke-width:1.5625;" x1="172.9167" x2="1056.25" y1="56.722" y2="56.722"/><polygon fill="#8B0000" points="181.25,60.8887,181.25,52.5553,172.9167,56.722" style="stroke:#8B0000;stroke-width:1.0416666666666667;"/><polygon fill="#8B0000" points="1047.9167,60.8887,1047.9167,52.5553,1056.25,56.722" style="stroke:#8B0000;stroke-width:1.0416666666666667;"/><text fill="#8B0000" font-family="Verdana" font-size="12.5" lengthAdjust="spacing" textLength="33.3333" x="597.9167" y="43.3573">cycle</text><line style="stroke:#333333;stroke-width:0.5208333333333334;" x1="10.4167" x2="1427.0833" y1="107.2266" y2="107.2266"/><text fill="#333333" font-family="Verdana" font-size="12.5" font-weight="bold" lengthAdjust="spacing" textLength="65.625" x="20.8333" y="124.0377">Gateway</text><line style="stroke:#333333;stroke-width:0.5208333333333334;" x1="10.4167" x2="92.7083" y1="133.2357" y2="133.2357"/><line style="stroke:#333333;stroke-width:0.5208333333333334;" x1="92.7083" x2="103.125" y1="133.2357" y2="107.2266"/><polygon fill="#E2E2F0" points="28.125,138.444,211.4583,138.444,223.9583,150.944,211.4583,163.444,28.125,163.444,15.625,150.944" style="stroke:#006400;stroke-width:1.5625;"/><polygon fill="#E2E2F0" points="236.4583,138.444,263.5417,138.444,276.0417,150.944,263.5417,163.444,236.4583,163.444,223.9583,150.944" style="stroke:#006400;stroke-width:1.5625;"/><polygon fill="#E2E2F0" points="288.5417,138.444,471.875,138.444,484.375,150.944,471.875,163.444,288.5417,163.444,276.0417,150.944" style="stroke:#006400;stroke-width:1.5625;"/><polygon fill="#E2E2F0" points="496.875,138.444,523.9583,138.444,536.4583,150.944,523.9583,163.444,496.875,163.444,484.375,150.944" style="stroke:#006400;stroke-width:1.5625;"/><polygon fill="#E2E2F0" points="548.9583,138.444,836.4583,138.444,848.9583,150.944,836.4583,163.444,548.9583,163.444,536.4583,150.944" style="stroke:#006400;stroke-width:1.5625;"/><polygon fill="#E2E2F0" points="861.4583,138.444,940.625,138.444,953.125,150.944,940.625,163.444,861.4583,163.444,848.9583,150.944" style="stroke:#006400;stroke-width:1.5625;"/><polygon fill="#E2E2F0" points="965.625,138.444,1096.875,138.444,1109.375,150.944,1096.875,163.444,965.625,163.444,953.125,150.944" style="stroke:#006400;stroke-width:1.5625;"/><polygon fill="#E2E2F0" points="1121.875,138.444,1148.9583,138.444,1161.4583,150.944,1148.9583,163.444,1121.875,163.444,1109.375,150.944" style="stroke:#006400;stroke-width:1.5625;"/><polygon fill="#E2E2F0" points="1173.9583,138.444,1421.875,138.444,1421.875,163.444,1173.9583,163.444,1161.4583,150.944" style="stroke:#E2E2F0;stroke-width:1.5625;"/><path d="M1421.875,138.444 L1173.9583,138.444 L1161.4583,150.944 L1173.9583,163.444 L1421.875,163.444 " fill="#E2E2F0" style="stroke:#006400;stroke-width:1.5625;"/><text fill="#333333" font-family="Verdana" font-size="12.5" font-weight="bold" lengthAdjust="spacing" textLength="42.7083" x="98.4375" y="155.2714">listen</text><text fill="#333333" font-family="Verdana" font-size="12.5" font-weight="bold" lengthAdjust="spacing" textLength="35.4167" x="232.2917" y="155.2714">save</text><text fill="#333333" font-family="Verdana" font-size="12.5" font-weight="bold" lengthAdjust="spacing" textLength="42.7083" x="358.8542" y="155.2714">listen</text><text fill="#333333" font-family="Verdana" font-size="12.5" font-weight="bold" lengthAdjust="spacing" textLength="35.4167" x="492.7083" y="155.2714">save</text><text fill="#333333" font-family="Verdana" font-size="12.5" font-weight="bold" lengthAdjust="spacing" textLength="42.7083" x="671.3542" y="155.2714">listen</text><text fill="#333333" font-family="Verdana" font-size="12.5" font-weight="bold" lengthAdjust="spacing" textLength="51.0417" x="875.5208" y="155.2714">upload</text><text fill="#333333" font-family="Verdana" font-size="12.5" font-weight="bold" lengthAdjust="spacing" textLength="42.7083" x="1009.8958" y="155.2714">listen</text><text fill="#333333" font-family="Verdana" font-size="12.5" font-weight="bold" lengthAdjust="spacing" textLength="35.4167" x="1117.7083" y="155.2714">save</text><text fill="#333333" font-family="Verdana" font-size="12.5" font-weight="bold" lengthAdjust="spacing" textLength="42.7083" x="1179.1667" y="155.2714">listen</text><line style="stroke:#333333;stroke-width:0.5208333333333334;" x1="10.4167" x2="1427.0833" y1="173.8607" y2="173.8607"/><text fill="#333333" font-family="Verdana" font-size="12.5" font-weight="bold" lengthAdjust="spacing" textLength="62.5" x="20.8333" y="190.6718">Sender1</text><line style="stroke:#333333;stroke-width:0.5208333333333334;" x1="10.4167" x2="89.5833" y1="199.8698" y2="199.8698"/><line style="stroke:#333333;stroke-width:0.5208333333333334;" x1="89.5833" x2="100" y1="199.8698" y2="173.8607"/><polygon fill="#E2E2F0" points="28.125,205.0781,107.2917,205.0781,119.7917,217.5781,107.2917,230.0781,28.125,230.0781,15.625,217.5781" style="stroke:#006400;stroke-width:1.5625;"/><polygon fill="#E2E2F0" points="132.2917,205.0781,211.4583,205.0781,223.9583,217.5781,211.4583,230.0781,132.2917,230.0781,119.7917,217.5781" style="stroke:#006400;stroke-width:1.5625;"/><polygon fill="#E2E2F0" points="236.4583,205.0781,367.7083,205.0781,380.2083,217.5781,367.7083,230.0781,236.4583,230.0781,223.9583,217.5781" style="stroke:#006400;stroke-width:1.5625;"/><polygon fill="#E2E2F0" points="392.7083,205.0781,992.7083,205.0781,1005.2083,217.5781,992.7083,230.0781,392.7083,230.0781,380.2083,217.5781" style="stroke:#006400;stroke-width:1.5625;"/><polygon fill="#E2E2F0" points="1017.7083,205.0781,1148.9583,205.0781,1161.4583,217.5781,1148.9583,230.0781,1017.7083,230.0781,1005.2083,217.5781" style="stroke:#006400;stroke-width:1.5625;"/><polygon fill="#E2E2F0" points="1173.9583,205.0781,1305.2083,205.0781,1317.7083,217.5781,1305.2083,230.0781,1173.9583,230.0781,1161.4583,217.5781" style="stroke:#006400;stroke-width:1.5625;"/><polygon fill="#E2E2F0" points="1330.2083,205.0781,1421.875,205.0781,1421.875,230.0781,1330.2083,230.0781,1317.7083,217.5781" style="stroke:#E2E2F0;stroke-width:1.5625;"/><path d="M1421.875,205.0781 L1330.2083,205.0781 L1317.7083,217.5781 L1330.2083,230.0781 L1421.875,230.0781 " fill="#E2E2F0" style="stroke:#006400;stroke-width:1.5625;"/><text fill="#333333" font-family="Verdana" font-size="12.5" font-weight="bold" lengthAdjust="spacing" textLength="40.625" x="47.3958" y="221.9055">sleep</text><text fill="#333333" font-family="Verdana" font-size="12.5" font-weight="bold" lengthAdjust="spacing" textLength="90.625" x="126.5625" y="221.9055">collect data</text><text fill="#333333" font-family="Verdana" font-size="12.5" font-weight="bold" lengthAdjust="spacing" textLength="42.7083" x="280.7292" y="221.9055">listen</text><text fill="#333333" font-family="Verdana" font-size="12.5" font-weight="bold" lengthAdjust="spacing" textLength="40.625" x="672.3958" y="221.9055">sleep</text><text fill="#333333" font-family="Verdana" font-size="12.5" font-weight="bold" lengthAdjust="spacing" textLength="90.625" x="1038.0208" y="221.9055">collect data</text><text fill="#333333" font-family="Verdana" font-size="12.5" font-weight="bold" lengthAdjust="spacing" textLength="42.7083" x="1218.2292" y="221.9055">listen</text><text fill="#333333" font-family="Verdana" font-size="12.5" font-weight="bold" lengthAdjust="spacing" textLength="40.625" x="1335.4167" y="221.9055">sleep</text><line style="stroke:#333333;stroke-width:0.5208333333333334;" x1="10.4167" x2="1427.0833" y1="240.4948" y2="240.4948"/><text fill="#333333" font-family="Verdana" font-size="12.5" font-weight="bold" lengthAdjust="spacing" textLength="62.5" x="20.8333" y="257.3059">Sender2</text><line style="stroke:#333333;stroke-width:0.5208333333333334;" x1="10.4167" x2="89.5833" y1="266.5039" y2="266.5039"/><line style="stroke:#333333;stroke-width:0.5208333333333334;" x1="89.5833" x2="100" y1="266.5039" y2="240.4948"/><polygon fill="#E2E2F0" points="28.125,271.7122,367.7083,271.7122,380.2083,284.2122,367.7083,296.7122,28.125,296.7122,15.625,284.2122" style="stroke:#006400;stroke-width:1.5625;"/><polygon fill="#E2E2F0" points="392.7083,271.7122,471.875,271.7122,484.375,284.2122,471.875,296.7122,392.7083,296.7122,380.2083,284.2122" style="stroke:#006400;stroke-width:1.5625;"/><polygon fill="#E2E2F0" points="496.875,271.7122,523.9583,271.7122,536.4583,284.2122,523.9583,296.7122,496.875,296.7122,484.375,284.2122" style="stroke:#006400;stroke-width:1.5625;"/><polygon fill="#E2E2F0" points="548.9583,271.7122,1421.875,271.7122,1421.875,296.7122,548.9583,296.7122,536.4583,284.2122" style="stroke:#E2E2F0;stroke-width:1.5625;"/><path d="M1421.875,271.7122 L548.9583,271.7122 L536.4583,284.2122 L548.9583,296.7122 L1421.875,296.7122 " fill="#E2E2F0" style="stroke:#006400;stroke-width:1.5625;"/><text fill="#333333" font-family="Verdana" font-size="12.5" font-weight="bold" lengthAdjust="spacing" textLength="40.625" x="177.6042" y="288.5396">sleep</text><text fill="#333333" font-family="Verdana" font-size="12.5" font-weight="bold" lengthAdjust="spacing" textLength="90.625" x="386.9792" y="288.5396">collect data</text><text fill="#333333" font-family="Verdana" font-size="12.5" font-weight="bold" lengthAdjust="spacing" textLength="42.7083" x="489.0625" y="288.5396">listen</text><text fill="#333333" font-family="Verdana" font-size="12.5" font-weight="bold" lengthAdjust="spacing" textLength="40.625" x="554.1667" y="288.5396">sleep</text><line style="stroke:#333333;stroke-width:2.0833333333333335;" x1="15.625" x2="15.625" y1="307.1289" y2="312.3372"/><line style="stroke:#333333;stroke-width:2.0833333333333335;" x1="67.7083" x2="67.7083" y1="307.1289" y2="312.3372"/><line style="stroke:#333333;stroke-width:2.0833333333333335;" x1="119.7917" x2="119.7917" y1="307.1289" y2="312.3372"/><line style="stroke:#333333;stroke-width:2.0833333333333335;" x1="171.875" x2="171.875" y1="307.1289" y2="312.3372"/><line style="stroke:#333333;stroke-width:2.0833333333333335;" x1="223.9583" x2="223.9583" y1="307.1289" y2="312.3372"/><line style="stroke:#333333;stroke-width:2.0833333333333335;" x1="276.0417" x2="276.0417" y1="307.1289" y2="312.3372"/><line style="stroke:#333333;stroke-width:2.0833333333333335;" x1="328.125" x2="328.125" y1="307.1289" y2="312.3372"/><line style="stroke:#333333;stroke-width:2.0833333333333335;" x1="380.2083" x2="380.2083" y1="307.1289" y2="312.3372"/><line style="stroke:#333333;stroke-width:2.0833333333333335;" x1="432.2917" x2="432.2917" y1="307.1289" y2="312.3372"/><line style="stroke:#333333;stroke-width:2.0833333333333335;" x1="484.375" x2="484.375" y1="307.1289" y2="312.3372"/><line style="stroke:#333333;stroke-width:2.0833333333333335;" x1="536.4583" x2="536.4583" y1="307.1289" y2="312.3372"/><line style="stroke:#333333;stroke-width:2.0833333333333335;" x1="588.5417" x2="588.5417" y1="307.1289" y2="312.3372"/><line style="stroke:#333333;stroke-width:2.0833333333333335;" x1="640.625" x2="640.625" y1="307.1289" y2="312.3372"/><line style="stroke:#333333;stroke-width:2.0833333333333335;" x1="692.7083" x2="692.7083" y1="307.1289" y2="312.3372"/><line style="stroke:#333333;stroke-width:2.0833333333333335;" x1="744.7917" x2="744.7917" y1="307.1289" y2="312.3372"/><line style="stroke:#333333;stroke-width:2.0833333333333335;" x1="796.875" x2="796.875" y1="307.1289" y2="312.3372"/><line style="stroke:#333333;stroke-width:2.0833333333333335;" x1="848.9583" x2="848.9583" y1="307.1289" y2="312.3372"/><line style="stroke:#333333;stroke-width:2.0833333333333335;" x1="901.0417" x2="901.0417" y1="307.1289" y2="312.3372"/><line style="stroke:#333333;stroke-width:2.0833333333333335;" x1="953.125" x2="953.125" y1="307.1289" y2="312.3372"/><line style="stroke:#333333;stroke-width:2.0833333333333335;" x1="1005.2083" x2="1005.2083" y1="307.1289" y2="312.3372"/><line style="stroke:#333333;stroke-width:2.0833333333333335;" x1="1057.2917" x2="1057.2917" y1="307.1289" y2="312.3372"/><line style="stroke:#333333;stroke-width:2.0833333333333335;" x1="1109.375" x2="1109.375" y1="307.1289" y2="312.3372"/><line style="stroke:#333333;stroke-width:2.0833333333333335;" x1="1161.4583" x2="1161.4583" y1="307.1289" y2="312.3372"/><line style="stroke:#333333;stroke-width:2.0833333333333335;" x1="1213.5417" x2="1213.5417" y1="307.1289" y2="312.3372"/><line style="stroke:#333333;stroke-width:2.0833333333333335;" x1="1265.625" x2="1265.625" y1="307.1289" y2="312.3372"/><line style="stroke:#333333;stroke-width:2.0833333333333335;" x1="1317.7083" x2="1317.7083" y1="307.1289" y2="312.3372"/><line style="stroke:#333333;stroke-width:2.0833333333333335;" x1="1369.7917" x2="1369.7917" y1="307.1289" y2="312.3372"/><line style="stroke:#333333;stroke-width:2.0833333333333335;" x1="1421.875" x2="1421.875" y1="307.1289" y2="312.3372"/><line style="stroke:#333333;stroke-width:2.0833333333333335;" x1="15.625" x2="1421.875" y1="307.1289" y2="307.1289"/><text fill="#333333" font-family="Verdana" font-size="12.5" lengthAdjust="spacing" textLength="8.3333" x="11.4583" y="330.19">0</text><text fill="#333333" font-family="Verdana" font-size="12.5" lengthAdjust="spacing" textLength="15.625" x="111.9792" y="330.19">10</text><text fill="#333333" font-family="Verdana" font-size="12.5" lengthAdjust="spacing" textLength="15.625" x="164.0625" y="330.19">15</text><text fill="#333333" font-family="Verdana" font-size="12.5" lengthAdjust="spacing" textLength="16.6667" x="215.625" y="330.19">20</text><text fill="#333333" font-family="Verdana" font-size="12.5" lengthAdjust="spacing" textLength="16.6667" x="267.7083" y="330.19">25</text><text fill="#333333" font-family="Verdana" font-size="12.5" lengthAdjust="spacing" textLength="16.6667" x="371.875" y="330.19">35</text><text fill="#333333" font-family="Verdana" font-size="12.5" lengthAdjust="spacing" textLength="16.6667" x="423.9583" y="330.19">40</text><text fill="#333333" font-family="Verdana" font-size="12.5" lengthAdjust="spacing" textLength="16.6667" x="476.0417" y="330.19">45</text><text fill="#333333" font-family="Verdana" font-size="12.5" lengthAdjust="spacing" textLength="16.6667" x="528.125" y="330.19">50</text><text fill="#333333" font-family="Verdana" font-size="12.5" lengthAdjust="spacing" textLength="16.6667" x="788.5417" y="330.19">75</text><text fill="#333333" font-family="Verdana" font-size="12.5" lengthAdjust="spacing" textLength="16.6667" x="840.625" y="330.19">80</text><text fill="#333333" font-family="Verdana" font-size="12.5" lengthAdjust="spacing" textLength="16.6667" x="892.7083" y="330.19">85</text><text fill="#333333" font-family="Verdana" font-size="12.5" lengthAdjust="spacing" textLength="16.6667" x="944.7917" y="330.19">90</text><text fill="#333333" font-family="Verdana" font-size="12.5" lengthAdjust="spacing" textLength="16.6667" x="996.875" y="330.19">95</text><text fill="#333333" font-family="Verdana" font-size="12.5" lengthAdjust="spacing" textLength="23.9583" x="1045.3125" y="330.19">100</text><text fill="#333333" font-family="Verdana" font-size="12.5" lengthAdjust="spacing" textLength="23.9583" x="1097.3958" y="330.19">105</text><text fill="#333333" font-family="Verdana" font-size="12.5" lengthAdjust="spacing" textLength="22.9167" x="1150" y="330.19">110</text><text fill="#333333" font-family="Verdana" font-size="12.5" lengthAdjust="spacing" textLength="23.9583" x="1305.7292" y="330.19">125</text><text fill="#333333" font-family="Verdana" font-size="12.5" lengthAdjust="spacing" textLength="23.9583" x="1357.8125" y="330.19">130</text><line style="stroke:#EC7211;stroke-width:3.125;" x1="536.4583" x2="536.4583" y1="150.944" y2="284.2122"/><polygon fill="#EC7211" points="533.6082,276.3815,539.3085,276.3815,536.4583,284.2122" style="stroke:#EC7211;stroke-width:3.125;"/><text fill="#EC7211" font-family="Serif" font-size="14.5833" lengthAdjust="spacing" textLength="81.25" x="541.6667" y="267.7338">timestamp</text><line style="stroke:#EC7211;stroke-width:3.125;" x1="223.9583" x2="223.9583" y1="217.5781" y2="150.944"/><polygon fill="#EC7211" points="226.8085,158.7748,221.1082,158.7748,223.9583,150.944" style="stroke:#EC7211;stroke-width:3.125;"/><text fill="#EC7211" font-family="Serif" font-size="14.5833" lengthAdjust="spacing" textLength="60.4167" x="229.1667" y="177.5197">payload</text><line style="stroke:#EC7211;stroke-width:3.125;" x1="1161.4583" x2="1161.4583" y1="217.5781" y2="150.944"/><polygon fill="#EC7211" points="1164.3085,158.7748,1158.6082,158.7748,1161.4583,150.944" style="stroke:#EC7211;stroke-width:3.125;"/><text fill="#EC7211" font-family="Serif" font-size="14.5833" lengthAdjust="spacing" textLength="60.4167" x="1166.6667" y="177.5197">payload</text><line style="stroke:#EC7211;stroke-width:3.125;" x1="484.375" x2="484.375" y1="284.2122" y2="150.944"/><polygon fill="#EC7211" points="487.2252,158.7748,481.5248,158.7748,484.375,150.944" style="stroke:#EC7211;stroke-width:3.125;"/><text fill="#EC7211" font-family="Serif" font-size="14.5833" lengthAdjust="spacing" textLength="60.4167" x="489.5833" y="177.5197">payload</text><!--SRC=[ZP3DJiKW48NtFCNORNEJGbCNZJ7itBdn2IPqL28jJK6Rlht8XLwkFx6xWJFpdJDpurzf9C3LdUo2qminfkoaj2Ee7iclTdch01sa-Y8-eASLjoYc-Y8-qJJGmgEOwk-YA4J1cCm6l0FjTW8yBpXInMgHlhMXINrzyARe4__sfOXxtq4R9aFZtUaU96yQw45joeGJoRnnX1ljF4rXEBuSVX2hkoD23XNuUOyUl1x9UHndLhTnxdqs5eUyIMQU5_Z9P38V_6ngYERz2ieQGyh3W1whQoAmV8kG9WVhOSOjkNS5xlPtN9dZE6sFBAuYjztHoE8Faz93yhRv1000]--></g></svg>